<svg width="32" height="32" viewBox="0 0 32 32" fill="none" xmlns="http://www.w3.org/2000/svg">
<g clip-path="url(#clip0_20_587)">
<mask id="mask0_20_587" style="mask-type:alpha" maskUnits="userSpaceOnUse" x="-2" y="-4" width="36" height="37">
<ellipse cx="15.9997" cy="14.0088" rx="17.9997" ry="18.0088" fill="white"/>
</mask>
<g mask="url(#mask0_20_587)">
<path d="M17.4136 29.117L16.5792 21.7768L17.1605 20.2128C17.1605 20.2128 16.1435 19.0578 16.1435 19.0127C16.0982 19.016 16.0716 19.0178 16.0716 19.0178C16.0716 19.0178 16.043 19.0162 15.9996 19.0127L14.8367 20.2128L15.418 21.7768L14.609 28.8961L14.0177 34.1025C14.6593 34.136 15.3378 34.1561 16.0699 34.1561C16.7484 34.1561 17.3818 34.1409 17.9799 34.1126L17.4136 29.117Z" fill="#171717"/>
<path d="M13.121 25.3135L14.0258 23.1747L12.2165 22.1069L13.0124 19.083C10.3067 19.3613 6.28087 20.3402 3.17122 23.5185C3.0623 25.8217 3.28014 28.8942 4.26693 30.2103C5.1565 31.3954 6.67274 33.65 13.545 34.0856C13.2451 33.2421 13.121 25.3135 13.121 25.3135L13.121 25.3135Z" fill="#171717"/>
<path d="M28.8279 23.5153C25.72 20.337 21.6925 19.3581 18.9868 19.0798L19.7826 22.1038L17.9733 23.1715L18.8781 25.3104C18.8781 25.3104 18.8496 25.3976 18.8026 25.5451C18.7792 26.861 18.6519 33.351 18.3805 34.0838C25.3184 33.6647 26.8394 31.3952 27.7328 30.2049C28.7177 28.8907 28.9372 25.8181 28.8283 23.5149L28.8279 23.5153Z" fill="#171717"/>
<path d="M21.6459 5.82749C21.0611 3.48243 20.1346 0.468552 19.2485 0.639529C18.4644 0.792001 13.5053 0.999891 12.1467 0.649584C11.309 0.434912 10.7527 3.45555 10.446 5.81067C7.34486 6.37378 5.26904 7.39124 5.26904 8.55629C5.26904 10.3298 10.0741 11.768 15.9999 11.768C21.9258 11.768 26.7309 10.3298 26.7309 8.55629C26.7309 7.40154 24.6936 6.39412 21.646 5.82749L21.6459 5.82749Z" fill="#171717"/>
<path d="M20.1911 12.2689C20.2766 12.4164 20.3302 12.5857 20.3302 12.7684C20.3302 13.3214 19.8812 13.769 19.3284 13.769H18.1506C17.5978 13.769 17.1488 13.3214 17.1488 12.7684C17.1488 12.6727 17.1657 12.5841 17.1907 12.4969C16.8001 12.5086 16.403 12.5186 15.9993 12.5186C15.624 12.5186 15.2553 12.5118 14.8887 12.5001C14.9139 12.5874 14.9289 12.6744 14.9289 12.7684C14.9289 13.3214 14.4815 13.769 13.9287 13.769L12.7507 13.7693C12.1995 13.7693 11.7505 13.3217 11.7505 12.7686C11.7505 12.5892 11.8008 12.4232 11.8845 12.2775C10.8308 12.1517 9.85238 11.9808 8.98615 11.7677C9.17383 12.3428 9.60275 12.7501 10.102 12.7583C10.953 16.0151 13.2686 18.3553 15.9993 18.3553C18.7302 18.3553 21.0456 16.0151 21.8966 12.7583C22.3959 12.7499 22.8248 12.3425 23.0124 11.7661C22.1682 11.974 21.2164 12.1433 20.1911 12.2689L20.1911 12.2689Z" fill="#171717"/>
</g>
</g>
<defs>
<clipPath id="clip0_20_587">
<rect width="32" height="32" fill="white"/>
</clipPath>
</defs>
</svg>
