<svg width="50" height="48" viewBox="0 0 50 48" fill="none" xmlns="http://www.w3.org/2000/svg">
<path d="M28.206 0.504726C28.448 0.247213 28.7802 0.121031 29.1047 0C29.3596 0.0849793 29.6171 0.162233 29.8747 0.236912C30.3202 0.690135 30.5802 1.40602 30.1785 1.9777C29.2592 3.03351 28.2085 3.96828 27.2351 4.97258C30.4129 5.02666 33.5932 4.94168 36.7683 5.01378C37.7365 5.10649 38.1486 6.47903 37.4327 7.10479C37.0696 7.49363 36.5082 7.46273 36.0215 7.46788C33.0652 7.45501 30.109 7.47046 27.1502 7.45758C28.139 8.41553 29.1356 9.36318 30.0704 10.3726C30.6034 10.9237 30.4 11.928 29.7227 12.2628C29.2335 12.5666 28.5897 12.3812 28.224 11.9692C26.5759 10.3572 24.9922 8.68077 23.3158 7.10221C22.8085 6.69019 22.8136 5.81207 23.2926 5.37945C24.9639 3.79059 26.563 2.12448 28.206 0.504726Z" fill="white" fill-opacity="0.59"/>
<path d="M8.9852 4.40868C10.5045 4.02241 12.2917 4.231 13.3887 5.45419C19.7982 11.8148 26.1819 18.1934 32.5734 24.5694C33.1374 25.1333 33.776 25.6484 34.1983 26.3334C34.4919 27.0106 34.0361 27.8681 33.3047 27.9866C32.7434 28.1488 32.2386 27.76 31.8807 27.3763C25.1339 20.6372 18.3999 13.8852 11.6324 7.16665C10.6668 6.06192 8.54486 6.8087 8.58091 8.30228C8.36717 9.43276 9.42813 10.092 10.1002 10.795C12.2839 12.9864 14.4883 15.1573 16.6642 17.3539C17.2462 17.9564 17.9183 18.4818 18.3999 19.1719C18.7475 19.6535 18.5389 20.2509 18.2763 20.7144C17.7175 21.0852 16.9449 21.1651 16.4531 20.6397C12.7887 17.0114 9.14229 13.3624 5.49075 9.72118C4.66671 8.89456 3.19631 9.2422 2.67871 10.2362C2.23064 10.9418 2.41347 11.8972 3.01348 12.4534C6.49505 15.9221 9.96375 19.4011 13.4376 22.875C13.9192 23.3565 13.7827 24.1548 13.4273 24.6672C11.9183 27.2449 10.3964 29.8149 8.88735 32.3926C8.15859 33.3944 8.11481 34.8854 9.03928 35.7841C11.1818 37.9369 13.3423 40.0768 15.4823 42.2322C16.5278 43.3009 17.8153 44.1455 19.2368 44.6142C22.1853 45.5619 25.5562 44.7198 27.7708 42.5773C28.2266 42.0313 29.1485 41.9412 29.6609 42.4562C30.1451 42.9687 30.0833 43.8932 29.5219 44.3258C27.4618 46.2546 24.6884 47.5344 21.8274 47.3902C19.0282 47.5473 16.3063 46.3215 14.2436 44.488C11.9209 42.1884 9.62641 39.8579 7.30107 37.5583C6.31994 36.5875 5.83067 35.1815 5.8693 33.8141C5.962 31.9291 7.23669 30.4381 8.11481 28.8596C9.05731 27.2295 9.98436 25.5891 10.9887 23.9977C8.37232 21.2294 5.60406 18.6002 2.93622 15.8783C1.70788 14.6139 0.0160228 13.3573 0.0237482 11.413C-0.161661 9.80358 0.75766 8.23533 2.11475 7.41644C3.34567 6.63102 4.95255 6.67737 6.26072 7.23875C6.64441 5.92543 7.68991 4.83873 8.9852 4.40868Z" fill="white" fill-opacity="0.59"/>
<path d="M41.8748 15.4612C43.2241 15.0363 44.6662 14.9951 46.0542 15.2295C47.522 15.6157 49.0001 16.3393 49.8963 17.6037C50.3238 18.5565 49.3272 19.208 48.7658 19.8029C46.5151 22.0922 44.2078 24.3274 42.0112 26.6682C41.0275 28.4115 40.3915 30.3249 39.467 32.0991C38.3211 34.718 36.7451 37.1979 34.6283 39.1344C33.691 39.9069 32.2232 38.6606 32.8309 37.6099C33.9022 36.3507 35.0429 35.1326 35.8876 33.6983C37.4275 31.0073 38.4782 28.0742 39.8996 25.3265C42.0421 22.996 44.3675 20.8252 46.5589 18.5333C46.6903 18.3994 46.7598 18.2346 46.7701 18.0415C46.2036 17.8484 45.6267 17.6861 45.0499 17.529C44.607 17.5084 44.1641 17.5059 43.7211 17.5342C42.7606 17.766 41.7795 18.0647 41.0662 18.7909C39.4335 20.3282 37.9142 21.984 36.2455 23.4827C35.1871 24.2424 33.7451 22.6201 34.667 21.6827C36.1631 20.1608 37.6953 18.6698 39.2172 17.1711C39.9666 16.4114 40.8859 15.8501 41.8748 15.4612Z" fill="white" fill-opacity="0.59"/>
</svg>
